<mxfile host="app.diagrams.net" agent="Mozilla/5.0 (Windows NT 10.0; Win64; x64) AppleWebKit/537.36 (KHTML, like Gecko) Chrome/141.0.0.0 Safari/537.36" version="28.2.5">
  <diagram name="Page-1" id="IdxBZqcJJL-wMfPgs2ij">
    <mxGraphModel dx="1489" dy="890" grid="1" gridSize="10" guides="1" tooltips="1" connect="1" arrows="1" fold="1" page="1" pageScale="1" pageWidth="850" pageHeight="1100" math="0" shadow="0">
      <root>
        <mxCell id="0" />
        <mxCell id="1" parent="0" />
        <mxCell id="F5WdonIl0qVl58yVMz9A-25" style="edgeStyle=orthogonalEdgeStyle;shape=connector;curved=1;rounded=0;orthogonalLoop=1;jettySize=auto;html=1;exitX=0.25;exitY=0.1;exitDx=0;exitDy=0;exitPerimeter=0;strokeColor=default;align=center;verticalAlign=middle;fontFamily=Helvetica;fontSize=11;fontColor=default;labelBackgroundColor=default;endArrow=none;endFill=0;" edge="1" parent="1" source="F5WdonIl0qVl58yVMz9A-1">
          <mxGeometry relative="1" as="geometry">
            <mxPoint x="240" y="230" as="targetPoint" />
            <Array as="points">
              <mxPoint x="188" y="230" />
            </Array>
          </mxGeometry>
        </mxCell>
        <mxCell id="F5WdonIl0qVl58yVMz9A-1" value="UART Tranceiver 1" style="shape=umlActor;verticalLabelPosition=bottom;verticalAlign=top;html=1;outlineConnect=0;" vertex="1" parent="1">
          <mxGeometry x="180" y="370" width="30" height="60" as="geometry" />
        </mxCell>
        <mxCell id="F5WdonIl0qVl58yVMz9A-22" style="edgeStyle=orthogonalEdgeStyle;rounded=0;orthogonalLoop=1;jettySize=auto;html=1;exitX=0.75;exitY=0.1;exitDx=0;exitDy=0;exitPerimeter=0;entryX=1;entryY=0.5;entryDx=0;entryDy=0;curved=1;endArrow=none;endFill=0;" edge="1" parent="1" source="F5WdonIl0qVl58yVMz9A-3" target="F5WdonIl0qVl58yVMz9A-9">
          <mxGeometry relative="1" as="geometry">
            <Array as="points">
              <mxPoint x="640" y="356" />
              <mxPoint x="640" y="133" />
            </Array>
          </mxGeometry>
        </mxCell>
        <mxCell id="F5WdonIl0qVl58yVMz9A-24" style="edgeStyle=orthogonalEdgeStyle;shape=connector;curved=1;rounded=0;orthogonalLoop=1;jettySize=auto;html=1;exitX=0.75;exitY=0.1;exitDx=0;exitDy=0;exitPerimeter=0;entryX=1;entryY=0.5;entryDx=0;entryDy=0;strokeColor=default;align=center;verticalAlign=middle;fontFamily=Helvetica;fontSize=11;fontColor=default;labelBackgroundColor=default;endArrow=none;endFill=0;" edge="1" parent="1" source="F5WdonIl0qVl58yVMz9A-3" target="F5WdonIl0qVl58yVMz9A-13">
          <mxGeometry relative="1" as="geometry">
            <Array as="points">
              <mxPoint x="510" y="356" />
              <mxPoint x="510" y="314" />
            </Array>
          </mxGeometry>
        </mxCell>
        <mxCell id="F5WdonIl0qVl58yVMz9A-3" value="UART Tranceiver 2" style="shape=umlActor;verticalLabelPosition=bottom;verticalAlign=top;html=1;outlineConnect=0;" vertex="1" parent="1">
          <mxGeometry x="460" y="350" width="30" height="60" as="geometry" />
        </mxCell>
        <mxCell id="F5WdonIl0qVl58yVMz9A-6" value="I want to send you a data of 8 bits. There will be 1 stop bit and no parity. This will be at 115200 bits/sec rate." style="whiteSpace=wrap;html=1;rounded=1;arcSize=50;align=center;verticalAlign=middle;strokeWidth=1;autosize=1;spacing=4;treeFolding=1;treeMoving=1;newEdgeStyle={&quot;edgeStyle&quot;:&quot;entityRelationEdgeStyle&quot;,&quot;startArrow&quot;:&quot;none&quot;,&quot;endArrow&quot;:&quot;none&quot;,&quot;segment&quot;:10,&quot;curved&quot;:1,&quot;sourcePerimeterSpacing&quot;:0,&quot;targetPerimeterSpacing&quot;:0};" vertex="1" parent="1">
          <mxGeometry x="210" y="20" width="220" height="60" as="geometry" />
        </mxCell>
        <mxCell id="F5WdonIl0qVl58yVMz9A-9" value="Cool, then I can handle it. Just set your Tx line LOW when you sent the data. I will be listening you for 86.81 milliseconds for your 10-bits as soon as I get the low signal on my Rx!" style="whiteSpace=wrap;html=1;rounded=1;arcSize=50;align=center;verticalAlign=middle;strokeWidth=1;autosize=1;spacing=4;treeFolding=1;treeMoving=1;newEdgeStyle={&quot;edgeStyle&quot;:&quot;entityRelationEdgeStyle&quot;,&quot;startArrow&quot;:&quot;none&quot;,&quot;endArrow&quot;:&quot;none&quot;,&quot;segment&quot;:10,&quot;curved&quot;:1,&quot;sourcePerimeterSpacing&quot;:0,&quot;targetPerimeterSpacing&quot;:0};dashed=1;dashPattern=8 8;" vertex="1" parent="1">
          <mxGeometry x="278.75" y="90" width="301.25" height="80" as="geometry" />
        </mxCell>
        <mxCell id="F5WdonIl0qVl58yVMz9A-11" value="" style="curved=1;endArrow=none;html=1;rounded=0;endFill=0;entryX=0;entryY=0.5;entryDx=0;entryDy=0;exitX=0.25;exitY=0.1;exitDx=0;exitDy=0;exitPerimeter=0;" edge="1" parent="1" source="F5WdonIl0qVl58yVMz9A-1" target="F5WdonIl0qVl58yVMz9A-6">
          <mxGeometry width="50" height="50" relative="1" as="geometry">
            <mxPoint x="110" y="160" as="sourcePoint" />
            <mxPoint x="160" y="110" as="targetPoint" />
            <Array as="points">
              <mxPoint x="110" y="110" />
            </Array>
          </mxGeometry>
        </mxCell>
        <mxCell id="F5WdonIl0qVl58yVMz9A-12" value="Here you are:" style="whiteSpace=wrap;html=1;rounded=1;arcSize=50;align=center;verticalAlign=top;strokeWidth=1;autosize=1;spacing=4;treeFolding=1;treeMoving=1;newEdgeStyle={&quot;edgeStyle&quot;:&quot;entityRelationEdgeStyle&quot;,&quot;startArrow&quot;:&quot;none&quot;,&quot;endArrow&quot;:&quot;none&quot;,&quot;segment&quot;:10,&quot;curved&quot;:1,&quot;sourcePerimeterSpacing&quot;:0,&quot;targetPerimeterSpacing&quot;:0};movable=1;resizable=1;rotatable=1;deletable=1;editable=1;locked=0;connectable=1;" vertex="1" parent="1">
          <mxGeometry x="240" y="205" width="170" height="55" as="geometry" />
        </mxCell>
        <mxCell id="F5WdonIl0qVl58yVMz9A-13" value="Got it!" style="whiteSpace=wrap;html=1;rounded=1;arcSize=50;align=center;verticalAlign=middle;strokeWidth=1;autosize=1;spacing=4;treeFolding=1;treeMoving=1;newEdgeStyle={&quot;edgeStyle&quot;:&quot;entityRelationEdgeStyle&quot;,&quot;startArrow&quot;:&quot;none&quot;,&quot;endArrow&quot;:&quot;none&quot;,&quot;segment&quot;:10,&quot;curved&quot;:1,&quot;sourcePerimeterSpacing&quot;:0,&quot;targetPerimeterSpacing&quot;:0};dashed=1;dashPattern=8 8;" vertex="1" parent="1">
          <mxGeometry x="420" y="298" width="70" height="32" as="geometry" />
        </mxCell>
        <mxCell id="F5WdonIl0qVl58yVMz9A-14" value="" style="endArrow=none;html=1;rounded=0;" edge="1" parent="1">
          <mxGeometry width="50" height="50" relative="1" as="geometry">
            <mxPoint x="250" y="230" as="sourcePoint" />
            <mxPoint x="400" y="230" as="targetPoint" />
            <Array as="points">
              <mxPoint x="290" y="230" />
              <mxPoint x="290" y="250" />
              <mxPoint x="300" y="250" />
              <mxPoint x="300" y="230" />
              <mxPoint x="310" y="230" />
              <mxPoint x="310" y="250" />
              <mxPoint x="320" y="250" />
              <mxPoint x="320" y="230" />
              <mxPoint x="350" y="230" />
              <mxPoint x="350" y="250" />
              <mxPoint x="360" y="250" />
              <mxPoint x="360" y="230" />
            </Array>
          </mxGeometry>
        </mxCell>
        <mxCell id="F5WdonIl0qVl58yVMz9A-15" value="" style="shape=curlyBracket;whiteSpace=wrap;html=1;rounded=1;labelPosition=left;verticalLabelPosition=middle;align=right;verticalAlign=middle;rotation=-90;size=0.5;strokeColor=#2FFF22;" vertex="1" parent="1">
          <mxGeometry x="278.75" y="256.25" width="17.5" height="25" as="geometry" />
        </mxCell>
        <mxCell id="F5WdonIl0qVl58yVMz9A-16" value="" style="shape=curlyBracket;whiteSpace=wrap;html=1;rounded=1;labelPosition=left;verticalLabelPosition=middle;align=right;verticalAlign=middle;rotation=-90;size=0.5;strokeColor=#2FFF22;" vertex="1" parent="1">
          <mxGeometry x="322.82" y="237.18" width="17.5" height="63.13" as="geometry" />
        </mxCell>
        <mxCell id="F5WdonIl0qVl58yVMz9A-18" value="" style="shape=curlyBracket;whiteSpace=wrap;html=1;rounded=1;labelPosition=left;verticalLabelPosition=middle;align=right;verticalAlign=middle;rotation=-90;size=0.5;strokeColor=#2FFF22;" vertex="1" parent="1">
          <mxGeometry x="367" y="257.25" width="17.5" height="23" as="geometry" />
        </mxCell>
        <mxCell id="F5WdonIl0qVl58yVMz9A-19" value="Start(1)" style="text;html=1;align=center;verticalAlign=middle;whiteSpace=wrap;rounded=0;fontSize=8;" vertex="1" parent="1">
          <mxGeometry x="257.5" y="268" width="60" height="30" as="geometry" />
        </mxCell>
        <mxCell id="F5WdonIl0qVl58yVMz9A-20" value="Data(8)" style="text;html=1;align=center;verticalAlign=middle;whiteSpace=wrap;rounded=0;fontSize=8;" vertex="1" parent="1">
          <mxGeometry x="301.57" y="268" width="60" height="30" as="geometry" />
        </mxCell>
        <mxCell id="F5WdonIl0qVl58yVMz9A-21" value="Stop(1)" style="text;html=1;align=center;verticalAlign=middle;whiteSpace=wrap;rounded=0;fontSize=8;" vertex="1" parent="1">
          <mxGeometry x="345.75" y="268" width="60" height="30" as="geometry" />
        </mxCell>
        <mxCell id="F5WdonIl0qVl58yVMz9A-26" value="" style="shape=curlyBracket;whiteSpace=wrap;html=1;rounded=1;labelPosition=left;verticalLabelPosition=middle;align=right;verticalAlign=middle;rotation=-90;size=0.5;strokeColor=#3333FF;" vertex="1" parent="1">
          <mxGeometry x="329.43" y="238.56" width="17.5" height="122.01" as="geometry" />
        </mxCell>
        <mxCell id="F5WdonIl0qVl58yVMz9A-27" value="86.81 ms" style="text;html=1;align=center;verticalAlign=middle;whiteSpace=wrap;rounded=0;fontSize=8;" vertex="1" parent="1">
          <mxGeometry x="308.18" y="300.31" width="60" height="30" as="geometry" />
        </mxCell>
        <mxCell id="F5WdonIl0qVl58yVMz9A-50" style="edgeStyle=orthogonalEdgeStyle;shape=connector;curved=1;rounded=0;orthogonalLoop=1;jettySize=auto;html=1;exitX=0.25;exitY=0.1;exitDx=0;exitDy=0;exitPerimeter=0;entryX=0;entryY=0.5;entryDx=0;entryDy=0;strokeColor=default;align=center;verticalAlign=middle;fontFamily=Helvetica;fontSize=11;fontColor=default;labelBackgroundColor=default;endArrow=none;endFill=0;" edge="1" parent="1" source="F5WdonIl0qVl58yVMz9A-30" target="F5WdonIl0qVl58yVMz9A-38">
          <mxGeometry relative="1" as="geometry">
            <Array as="points">
              <mxPoint x="170" y="976" />
              <mxPoint x="170" y="827" />
            </Array>
          </mxGeometry>
        </mxCell>
        <mxCell id="F5WdonIl0qVl58yVMz9A-52" style="edgeStyle=orthogonalEdgeStyle;shape=connector;curved=1;rounded=0;orthogonalLoop=1;jettySize=auto;html=1;exitX=0.25;exitY=0.1;exitDx=0;exitDy=0;exitPerimeter=0;entryX=0;entryY=0.5;entryDx=0;entryDy=0;strokeColor=default;align=center;verticalAlign=middle;fontFamily=Helvetica;fontSize=11;fontColor=default;labelBackgroundColor=default;endArrow=none;endFill=0;" edge="1" parent="1" source="F5WdonIl0qVl58yVMz9A-30" target="F5WdonIl0qVl58yVMz9A-45">
          <mxGeometry relative="1" as="geometry">
            <Array as="points">
              <mxPoint x="200" y="976" />
              <mxPoint x="200" y="895" />
            </Array>
          </mxGeometry>
        </mxCell>
        <mxCell id="F5WdonIl0qVl58yVMz9A-60" style="edgeStyle=orthogonalEdgeStyle;shape=connector;curved=1;rounded=0;orthogonalLoop=1;jettySize=auto;html=1;exitX=1;exitY=1;exitDx=0;exitDy=0;exitPerimeter=0;entryX=0;entryY=0.75;entryDx=0;entryDy=0;strokeColor=default;align=center;verticalAlign=middle;fontFamily=Helvetica;fontSize=11;fontColor=default;labelBackgroundColor=default;endArrow=none;endFill=0;" edge="1" parent="1" source="F5WdonIl0qVl58yVMz9A-30" target="F5WdonIl0qVl58yVMz9A-58">
          <mxGeometry relative="1" as="geometry" />
        </mxCell>
        <mxCell id="F5WdonIl0qVl58yVMz9A-30" value="UART Tranceiver 1" style="shape=umlActor;verticalLabelPosition=bottom;verticalAlign=top;html=1;outlineConnect=0;" vertex="1" parent="1">
          <mxGeometry x="200" y="970" width="30" height="60" as="geometry" />
        </mxCell>
        <mxCell id="F5WdonIl0qVl58yVMz9A-48" style="edgeStyle=orthogonalEdgeStyle;shape=connector;curved=1;rounded=0;orthogonalLoop=1;jettySize=auto;html=1;exitX=0.75;exitY=0.1;exitDx=0;exitDy=0;exitPerimeter=0;entryX=1;entryY=0.5;entryDx=0;entryDy=0;strokeColor=default;align=center;verticalAlign=middle;fontFamily=Helvetica;fontSize=11;fontColor=default;labelBackgroundColor=default;endArrow=none;endFill=0;" edge="1" parent="1" source="F5WdonIl0qVl58yVMz9A-31" target="F5WdonIl0qVl58yVMz9A-37">
          <mxGeometry relative="1" as="geometry">
            <Array as="points">
              <mxPoint x="620" y="976" />
              <mxPoint x="620" y="740" />
            </Array>
          </mxGeometry>
        </mxCell>
        <mxCell id="F5WdonIl0qVl58yVMz9A-49" style="edgeStyle=orthogonalEdgeStyle;shape=connector;curved=1;rounded=0;orthogonalLoop=1;jettySize=auto;html=1;exitX=0.75;exitY=0.1;exitDx=0;exitDy=0;exitPerimeter=0;entryX=1;entryY=0.5;entryDx=0;entryDy=0;strokeColor=default;align=center;verticalAlign=middle;fontFamily=Helvetica;fontSize=11;fontColor=default;labelBackgroundColor=default;endArrow=none;endFill=0;" edge="1" parent="1" source="F5WdonIl0qVl58yVMz9A-31" target="F5WdonIl0qVl58yVMz9A-42">
          <mxGeometry relative="1" as="geometry">
            <Array as="points">
              <mxPoint x="590" y="976" />
              <mxPoint x="590" y="827" />
            </Array>
          </mxGeometry>
        </mxCell>
        <mxCell id="F5WdonIl0qVl58yVMz9A-53" style="edgeStyle=orthogonalEdgeStyle;shape=connector;curved=1;rounded=0;orthogonalLoop=1;jettySize=auto;html=1;exitX=0.75;exitY=0.1;exitDx=0;exitDy=0;exitPerimeter=0;entryX=1;entryY=0.25;entryDx=0;entryDy=0;strokeColor=default;align=center;verticalAlign=middle;fontFamily=Helvetica;fontSize=11;fontColor=default;labelBackgroundColor=default;endArrow=none;endFill=0;" edge="1" parent="1" source="F5WdonIl0qVl58yVMz9A-31" target="F5WdonIl0qVl58yVMz9A-51">
          <mxGeometry relative="1" as="geometry">
            <Array as="points">
              <mxPoint x="560" y="976" />
              <mxPoint x="560" y="897" />
            </Array>
          </mxGeometry>
        </mxCell>
        <mxCell id="F5WdonIl0qVl58yVMz9A-61" style="edgeStyle=orthogonalEdgeStyle;shape=connector;curved=1;rounded=0;orthogonalLoop=1;jettySize=auto;html=1;exitX=0;exitY=1;exitDx=0;exitDy=0;exitPerimeter=0;entryX=0.25;entryY=0;entryDx=0;entryDy=0;strokeColor=default;align=center;verticalAlign=middle;fontFamily=Helvetica;fontSize=11;fontColor=default;labelBackgroundColor=default;endArrow=none;endFill=0;" edge="1" parent="1" source="F5WdonIl0qVl58yVMz9A-31" target="F5WdonIl0qVl58yVMz9A-58">
          <mxGeometry relative="1" as="geometry" />
        </mxCell>
        <mxCell id="F5WdonIl0qVl58yVMz9A-31" value="UART Tranceiver 2" style="shape=umlActor;verticalLabelPosition=bottom;verticalAlign=top;html=1;outlineConnect=0;" vertex="1" parent="1">
          <mxGeometry x="534.43" y="970" width="30" height="60" as="geometry" />
        </mxCell>
        <mxCell id="F5WdonIl0qVl58yVMz9A-34" value="I want to send you a data of 8 bits. There will be 1 stop bit and no parity. This will be at 115200 bits/sec rate." style="whiteSpace=wrap;html=1;rounded=1;arcSize=50;align=center;verticalAlign=middle;strokeWidth=1;autosize=1;spacing=4;treeFolding=1;treeMoving=1;newEdgeStyle={&quot;edgeStyle&quot;:&quot;entityRelationEdgeStyle&quot;,&quot;startArrow&quot;:&quot;none&quot;,&quot;endArrow&quot;:&quot;none&quot;,&quot;segment&quot;:10,&quot;curved&quot;:1,&quot;sourcePerimeterSpacing&quot;:0,&quot;targetPerimeterSpacing&quot;:0};" vertex="1" parent="1">
          <mxGeometry x="148.18" y="710" width="220" height="60" as="geometry" />
        </mxCell>
        <mxCell id="F5WdonIl0qVl58yVMz9A-35" value="" style="curved=1;endArrow=none;html=1;rounded=0;endFill=0;entryX=0;entryY=0.5;entryDx=0;entryDy=0;exitX=0.25;exitY=0.1;exitDx=0;exitDy=0;exitPerimeter=0;" edge="1" parent="1" target="F5WdonIl0qVl58yVMz9A-34" source="F5WdonIl0qVl58yVMz9A-30">
          <mxGeometry width="50" height="50" relative="1" as="geometry">
            <mxPoint x="243" y="760" as="sourcePoint" />
            <mxPoint x="215" y="494" as="targetPoint" />
            <Array as="points">
              <mxPoint x="80" y="960" />
            </Array>
          </mxGeometry>
        </mxCell>
        <mxCell id="F5WdonIl0qVl58yVMz9A-37" value="I want to send you a data of 8 bits. There will be 1 stop bit and 1 parity. This will be at 9600 bits/sec rate." style="whiteSpace=wrap;html=1;rounded=1;arcSize=50;align=center;verticalAlign=middle;strokeWidth=1;autosize=1;spacing=4;treeFolding=1;treeMoving=1;newEdgeStyle={&quot;edgeStyle&quot;:&quot;entityRelationEdgeStyle&quot;,&quot;startArrow&quot;:&quot;none&quot;,&quot;endArrow&quot;:&quot;none&quot;,&quot;segment&quot;:10,&quot;curved&quot;:1,&quot;sourcePerimeterSpacing&quot;:0,&quot;targetPerimeterSpacing&quot;:0};" vertex="1" parent="1">
          <mxGeometry x="340.32" y="705" width="218" height="65" as="geometry" />
        </mxCell>
        <mxCell id="F5WdonIl0qVl58yVMz9A-40" value="" style="group" vertex="1" connectable="0" parent="1">
          <mxGeometry x="220" y="800" width="170" height="55" as="geometry" />
        </mxCell>
        <mxCell id="F5WdonIl0qVl58yVMz9A-38" value="Here you are:" style="whiteSpace=wrap;html=1;rounded=1;arcSize=50;align=center;verticalAlign=top;strokeWidth=1;autosize=1;spacing=4;treeFolding=1;treeMoving=1;newEdgeStyle={&quot;edgeStyle&quot;:&quot;entityRelationEdgeStyle&quot;,&quot;startArrow&quot;:&quot;none&quot;,&quot;endArrow&quot;:&quot;none&quot;,&quot;segment&quot;:10,&quot;curved&quot;:1,&quot;sourcePerimeterSpacing&quot;:0,&quot;targetPerimeterSpacing&quot;:0};movable=1;resizable=1;rotatable=1;deletable=1;editable=1;locked=0;connectable=1;" vertex="1" parent="F5WdonIl0qVl58yVMz9A-40">
          <mxGeometry width="170" height="55" as="geometry" />
        </mxCell>
        <mxCell id="F5WdonIl0qVl58yVMz9A-39" value="" style="endArrow=none;html=1;rounded=0;" edge="1" parent="F5WdonIl0qVl58yVMz9A-40">
          <mxGeometry width="50" height="50" relative="1" as="geometry">
            <mxPoint x="10" y="25" as="sourcePoint" />
            <mxPoint x="160" y="25" as="targetPoint" />
            <Array as="points">
              <mxPoint x="50" y="25" />
              <mxPoint x="50" y="45" />
              <mxPoint x="60" y="45" />
              <mxPoint x="60" y="25" />
              <mxPoint x="70" y="25" />
              <mxPoint x="70" y="45" />
              <mxPoint x="80" y="45" />
              <mxPoint x="80" y="25" />
              <mxPoint x="110" y="25" />
              <mxPoint x="110" y="45" />
              <mxPoint x="120" y="45" />
              <mxPoint x="120" y="25" />
            </Array>
          </mxGeometry>
        </mxCell>
        <mxCell id="F5WdonIl0qVl58yVMz9A-41" value="" style="group" vertex="1" connectable="0" parent="1">
          <mxGeometry x="350" y="800" width="170" height="55" as="geometry" />
        </mxCell>
        <mxCell id="F5WdonIl0qVl58yVMz9A-42" value="Here you are:" style="whiteSpace=wrap;html=1;rounded=1;arcSize=50;align=center;verticalAlign=top;strokeWidth=1;autosize=1;spacing=4;treeFolding=1;treeMoving=1;newEdgeStyle={&quot;edgeStyle&quot;:&quot;entityRelationEdgeStyle&quot;,&quot;startArrow&quot;:&quot;none&quot;,&quot;endArrow&quot;:&quot;none&quot;,&quot;segment&quot;:10,&quot;curved&quot;:1,&quot;sourcePerimeterSpacing&quot;:0,&quot;targetPerimeterSpacing&quot;:0};movable=1;resizable=1;rotatable=1;deletable=1;editable=1;locked=0;connectable=1;" vertex="1" parent="F5WdonIl0qVl58yVMz9A-41">
          <mxGeometry width="170" height="55" as="geometry" />
        </mxCell>
        <mxCell id="F5WdonIl0qVl58yVMz9A-43" value="" style="endArrow=none;html=1;rounded=0;" edge="1" parent="F5WdonIl0qVl58yVMz9A-41">
          <mxGeometry width="50" height="50" relative="1" as="geometry">
            <mxPoint x="10" y="25" as="sourcePoint" />
            <mxPoint x="160" y="25" as="targetPoint" />
            <Array as="points">
              <mxPoint x="40" y="25" />
              <mxPoint x="40" y="45" />
              <mxPoint x="60" y="45" />
              <mxPoint x="60" y="25" />
              <mxPoint x="80" y="25" />
              <mxPoint x="80" y="45" />
              <mxPoint x="100" y="45" />
              <mxPoint x="100" y="25" />
              <mxPoint x="120" y="25" />
              <mxPoint x="120" y="45" />
              <mxPoint x="140" y="45" />
              <mxPoint x="140" y="25" />
            </Array>
          </mxGeometry>
        </mxCell>
        <mxCell id="F5WdonIl0qVl58yVMz9A-45" value="Did it get my msg?" style="whiteSpace=wrap;html=1;rounded=1;arcSize=50;align=center;verticalAlign=middle;strokeWidth=1;autosize=1;spacing=4;treeFolding=1;treeMoving=1;newEdgeStyle={&quot;edgeStyle&quot;:&quot;entityRelationEdgeStyle&quot;,&quot;startArrow&quot;:&quot;none&quot;,&quot;endArrow&quot;:&quot;none&quot;,&quot;segment&quot;:10,&quot;curved&quot;:1,&quot;sourcePerimeterSpacing&quot;:0,&quot;targetPerimeterSpacing&quot;:0};movable=1;resizable=1;rotatable=1;deletable=1;editable=1;locked=0;connectable=1;dashed=1;dashPattern=8 8;" vertex="1" parent="1">
          <mxGeometry x="235" y="880" width="140" height="30" as="geometry" />
        </mxCell>
        <mxCell id="F5WdonIl0qVl58yVMz9A-51" value="Did it get my msg?" style="whiteSpace=wrap;html=1;rounded=1;arcSize=50;align=center;verticalAlign=middle;strokeWidth=1;autosize=1;spacing=4;treeFolding=1;treeMoving=1;newEdgeStyle={&quot;edgeStyle&quot;:&quot;entityRelationEdgeStyle&quot;,&quot;startArrow&quot;:&quot;none&quot;,&quot;endArrow&quot;:&quot;none&quot;,&quot;segment&quot;:10,&quot;curved&quot;:1,&quot;sourcePerimeterSpacing&quot;:0,&quot;targetPerimeterSpacing&quot;:0};movable=1;resizable=1;rotatable=1;deletable=1;editable=1;locked=0;connectable=1;dashed=1;dashPattern=8 8;" vertex="1" parent="1">
          <mxGeometry x="360" y="890" width="140" height="30" as="geometry" />
        </mxCell>
        <mxCell id="F5WdonIl0qVl58yVMz9A-54" value="UART Tranceiver 3" style="shape=umlActor;verticalLabelPosition=bottom;verticalAlign=top;html=1;outlineConnect=0;" vertex="1" parent="1">
          <mxGeometry x="590" y="1130" width="30" height="60" as="geometry" />
        </mxCell>
        <mxCell id="F5WdonIl0qVl58yVMz9A-55" value="Hi! Take me in!" style="whiteSpace=wrap;html=1;rounded=1;arcSize=50;align=center;verticalAlign=middle;strokeWidth=1;autosize=1;spacing=4;treeFolding=1;treeMoving=1;newEdgeStyle={&quot;edgeStyle&quot;:&quot;entityRelationEdgeStyle&quot;,&quot;startArrow&quot;:&quot;none&quot;,&quot;endArrow&quot;:&quot;none&quot;,&quot;segment&quot;:10,&quot;curved&quot;:1,&quot;sourcePerimeterSpacing&quot;:0,&quot;targetPerimeterSpacing&quot;:0};movable=1;resizable=1;rotatable=1;deletable=1;editable=1;locked=0;connectable=1;" vertex="1" parent="1">
          <mxGeometry x="434.43" y="1100" width="120" height="30" as="geometry" />
        </mxCell>
        <mxCell id="F5WdonIl0qVl58yVMz9A-56" style="edgeStyle=orthogonalEdgeStyle;shape=connector;curved=1;rounded=0;orthogonalLoop=1;jettySize=auto;html=1;exitX=0.25;exitY=0.1;exitDx=0;exitDy=0;exitPerimeter=0;strokeColor=default;align=center;verticalAlign=middle;fontFamily=Helvetica;fontSize=11;fontColor=default;labelBackgroundColor=default;endArrow=none;endFill=0;" edge="1" parent="1" source="F5WdonIl0qVl58yVMz9A-54">
          <mxGeometry relative="1" as="geometry">
            <mxPoint x="560" y="1115" as="targetPoint" />
            <Array as="points">
              <mxPoint x="580" y="1136" />
              <mxPoint x="580" y="1115" />
            </Array>
          </mxGeometry>
        </mxCell>
        <mxCell id="F5WdonIl0qVl58yVMz9A-58" value="Naah.." style="whiteSpace=wrap;html=1;rounded=1;arcSize=50;align=center;verticalAlign=middle;strokeWidth=1;autosize=1;spacing=4;treeFolding=1;treeMoving=1;newEdgeStyle={&quot;edgeStyle&quot;:&quot;entityRelationEdgeStyle&quot;,&quot;startArrow&quot;:&quot;none&quot;,&quot;endArrow&quot;:&quot;none&quot;,&quot;segment&quot;:10,&quot;curved&quot;:1,&quot;sourcePerimeterSpacing&quot;:0,&quot;targetPerimeterSpacing&quot;:0};movable=1;resizable=1;rotatable=1;deletable=1;editable=1;locked=0;connectable=1;" vertex="1" parent="1">
          <mxGeometry x="345" y="1153" width="80" height="30" as="geometry" />
        </mxCell>
        <mxCell id="F5WdonIl0qVl58yVMz9A-63" style="edgeStyle=orthogonalEdgeStyle;shape=connector;curved=1;rounded=0;orthogonalLoop=1;jettySize=auto;html=1;exitX=0.75;exitY=0.1;exitDx=0;exitDy=0;exitPerimeter=0;entryX=0;entryY=0.5;entryDx=0;entryDy=0;strokeColor=default;align=center;verticalAlign=middle;fontFamily=Helvetica;fontSize=11;fontColor=default;labelBackgroundColor=default;endArrow=none;endFill=0;" edge="1" parent="1" target="F5WdonIl0qVl58yVMz9A-64" source="F5WdonIl0qVl58yVMz9A-1">
          <mxGeometry relative="1" as="geometry">
            <mxPoint x="223" y="426" as="sourcePoint" />
            <Array as="points">
              <mxPoint x="203" y="350" />
              <mxPoint x="215" y="350" />
              <mxPoint x="215" y="345" />
            </Array>
          </mxGeometry>
        </mxCell>
        <mxCell id="F5WdonIl0qVl58yVMz9A-64" value="Did it get my msg?" style="whiteSpace=wrap;html=1;rounded=1;arcSize=50;align=center;verticalAlign=middle;strokeWidth=1;autosize=1;spacing=4;treeFolding=1;treeMoving=1;newEdgeStyle={&quot;edgeStyle&quot;:&quot;entityRelationEdgeStyle&quot;,&quot;startArrow&quot;:&quot;none&quot;,&quot;endArrow&quot;:&quot;none&quot;,&quot;segment&quot;:10,&quot;curved&quot;:1,&quot;sourcePerimeterSpacing&quot;:0,&quot;targetPerimeterSpacing&quot;:0};movable=1;resizable=1;rotatable=1;deletable=1;editable=1;locked=0;connectable=1;dashed=1;dashPattern=8 8;" vertex="1" parent="1">
          <mxGeometry x="250" y="330" width="140" height="30" as="geometry" />
        </mxCell>
        <mxCell id="F5WdonIl0qVl58yVMz9A-65" value="1) Conflicts&lt;div&gt;2) No room for another communicator&lt;/div&gt;&lt;div&gt;3) Who decides what?&lt;/div&gt;&lt;div&gt;4) No clock synch -&amp;gt; problem for longer messages.&lt;/div&gt;&lt;div&gt;&lt;br&gt;&lt;/div&gt;" style="text;html=1;align=left;verticalAlign=middle;whiteSpace=wrap;rounded=0;fontFamily=Helvetica;fontSize=23;fontColor=#3333FF;labelBackgroundColor=default;" vertex="1" parent="1">
          <mxGeometry x="670" y="970" width="440" height="60" as="geometry" />
        </mxCell>
      </root>
    </mxGraphModel>
  </diagram>
</mxfile>
